<svg width="416" height="150" viewBox="0 0 416 150" fill="none" xmlns="http://www.w3.org/2000/svg">
<path d="M15.8973 58.0467L74.036 19.1293V0L0 49.5587V146.493H118.233V130.595H15.8973V58.0467Z" fill="#F3B00D"/>
<path d="M68.5275 27.5153V47.166L101.881 69.398V107.394H40.6836V65.398H24.3329V123.749H118.233V60.6446L68.5275 27.5153Z" fill="white"/>
<path d="M149.349 125.459C137.601 125.459 128 117.524 128 105.144V68.4772H141.887V104.825C141.887 110.065 144.745 113.081 149.349 113.081C153.952 113.081 156.968 110.065 156.968 104.825V68.4772H170.857V105.144C170.857 117.524 161.093 125.459 149.349 125.459Z" fill="white"/>
<path d="M200.002 80.9378H192.143V92.3644H200.002C203.81 92.3644 206.032 89.5858 206.032 86.6511C206.032 83.7164 203.81 80.9378 200.002 80.9378ZM206.826 124.984L196.827 103.951H192.143V124.984H178.254V68.4764H200.636C213.178 68.4764 219.922 77.3671 219.922 86.6511C219.922 94.3498 215.16 99.1898 210.715 101.411L222.938 124.984H206.826Z" fill="white"/>
<path d="M252.162 82.8413C251.131 81.492 249.146 80.3827 246.607 80.3827C244.069 80.3827 242.082 81.492 241.053 82.8413C239.781 84.508 238.986 86.4147 238.986 96.7293C238.986 107.049 239.781 108.872 241.053 110.539C242.082 111.888 244.069 113.081 246.607 113.081C249.146 113.081 251.131 111.888 252.162 110.539C253.433 108.872 254.226 107.049 254.226 96.7293C254.226 86.4147 253.433 84.508 252.162 82.8413ZM262.401 119.112C258.273 123.237 253.511 125.459 246.607 125.459C239.701 125.459 234.939 123.237 230.813 119.112C224.859 113.159 225.098 105.224 225.098 96.7293C225.098 88.2373 224.859 80.3027 230.813 74.352C234.939 70.2227 239.701 68 246.607 68C253.511 68 258.273 70.2227 262.401 74.352C268.353 80.3027 268.114 88.2373 268.114 96.7293C268.114 105.224 268.353 113.159 262.401 119.112Z" fill="white"/>
<path d="M272.816 95.4606H298.847V107.682H272.816V95.4606Z" fill="white"/>
<path d="M344.181 124.985V97.9192L336.164 111.889H327.275L319.261 97.9192V124.985H305.373V68.4766H319.023L331.72 93.3992L344.42 68.4766H358.071V124.985H344.181Z" fill="#F3B00D"/>
<path d="M397.931 124.985L384.914 101.81L380.153 107.287V124.985H366.423V68.4766H380.153V88.4766L396.502 68.4766H413.487L394.199 91.3339L414.122 124.985H397.931Z" fill="#F3B00D"/>
</svg>
